<?xml version="1.0" encoding="UTF-8"?>
<svg xmlns="http://www.w3.org/2000/svg" xmlns:xlink="http://www.w3.org/1999/xlink" viewBox="0 0 841.89 595.28">
  <defs>
    <style>
      .cls-1 {
        font-size: 14px;
        stroke-width: .75px;
      }

      .cls-2 {
        font-size: 36px;
      }

      .cls-2, .cls-3, .cls-4 {
        stroke-width: 2px;
      }

      .cls-5, .cls-6, .cls-7, .cls-3, .cls-8 {
        fill: #1d1d1b;
      }

      .cls-5, .cls-9, .cls-10 {
        font-size: 24px;
      }

      .cls-5, .cls-9, .cls-7, .cls-8 {
        font-family: CambriaMath, 'Cambria Math';
      }

      .cls-11 {
        fill: #9dc423;
      }

      .cls-11, .cls-12, .cls-13, .cls-14, .cls-15, .cls-7, .cls-16, .cls-3, .cls-4, .cls-17, .cls-18 {
        stroke-miterlimit: 10;
      }

      .cls-11, .cls-12, .cls-13, .cls-14, .cls-15, .cls-16, .cls-17, .cls-18 {
        stroke: #fff;
        stroke-width: 3px;
      }

      .cls-19 {
        letter-spacing: 0em;
      }

      .cls-20 {
        fill: #fff;
      }

      .cls-21 {
        letter-spacing: -.07em;
      }

      .cls-22 {
        letter-spacing: -.04em;
      }

      .cls-12 {
        fill: #e62c32;
      }

      .cls-13 {
        fill: #f9ea32;
      }

      .cls-23 {
        font-size: 18px;
      }

      .cls-24 {
        letter-spacing: -.02em;
      }

      .cls-14 {
        fill: #60b22f;
      }

      .cls-25 {
        fill: url(#Dégradé_sans_nom_48);
      }

      .cls-15 {
        fill: #d31216;
      }

      .cls-7, .cls-3, .cls-4 {
        stroke: #1d1d1b;
      }

      .cls-16 {
        fill: #ebe440;
      }

      .cls-26 {
        letter-spacing: -.01em;
      }

      .cls-4 {
        font-size: 12px;
      }

      .cls-17 {
        fill: #1d8bcc;
      }

      .cls-18 {
        fill: #2dabe3;
      }

      .cls-27 {
        letter-spacing: -.08em;
      }
    </style>
    <linearGradient id="Dégradé_sans_nom_48" data-name="Dégradé sans nom 48" x1="695.33" y1="453.17" x2="781.22" y2="453.17" gradientUnits="userSpaceOnUse">
      <stop offset="0" stop-color="#3aaa35"/>
      <stop offset=".94" stop-color="#063"/>
    </linearGradient>
  </defs>
  <g id="Calque_2" data-name="Calque 2">
    <g>
      <path class="cls-17" d="M351.21,177.36l-46.7-80.88c-35.21,20.42-64.56,49.82-84.93,85.07l80.88,46.69c12.17-21.08,29.71-38.66,50.74-50.89Z"/>
      <path class="cls-15" d="M420.94,158.62c25.23,0,48.9,6.72,69.3,18.48l46.69-80.88c-34.14-19.7-73.75-30.98-115.99-30.98-.1,0-.2,0-.3,0v93.38c.1,0,.2,0,.3,0Z"/>
      <path class="cls-17" d="M420.65,158.63v-93.38c-42.32.05-81.98,11.42-116.14,31.24l46.7,80.88c20.42-11.87,44.14-18.68,69.44-18.74Z"/>
      <path class="cls-14" d="M490.24,418.18l46.7,80.88c35.32-20.39,64.77-49.8,85.22-85.08l-80.88-46.69c-12.25,21.11-29.88,38.71-51.03,50.89Z"/>
      <path class="cls-14" d="M653.34,297.63h-93.38c0,25.38-6.8,49.17-18.68,69.65l80.88,46.69c19.83-34.21,31.18-73.95,31.18-116.34,0,0,0,0,0,0Z"/>
      <path class="cls-15" d="M559.96,297.64h93.38c0-42.39-11.36-82.13-31.18-116.34l-80.88,46.7c11.88,20.48,18.68,44.27,18.68,69.64Z"/>
      <path class="cls-15" d="M541.28,227.99l80.88-46.7c-20.44-35.28-49.9-64.69-85.22-85.08l-46.69,80.88c21.15,12.19,38.79,29.78,51.04,50.89Z"/>
      <path class="cls-16" d="M281.93,297.64h-93.38c0,42.29,11.3,81.93,31.03,116.09l80.88-46.7c-11.79-20.42-18.53-44.12-18.53-69.39Z"/>
      <path class="cls-14" d="M420.94,436.65c-.1,0-.2,0-.29,0v93.38c.1,0,.2,0,.29,0,42.25,0,81.86-11.28,116-30.98l-46.7-80.88c-20.4,11.75-44.06,18.48-69.3,18.48Z"/>
      <path class="cls-16" d="M351.21,417.92l-46.69,80.88c34.16,19.81,73.82,31.18,116.14,31.23v-93.38c-25.31-.05-49.02-6.87-69.44-18.73Z"/>
      <path class="cls-17" d="M281.93,297.64c0-25.27,6.75-48.97,18.53-69.39l-80.88-46.69c-19.73,34.16-31.03,73.8-31.03,116.08,0,0,0,0,0,0h93.38Z"/>
      <path class="cls-16" d="M300.46,367.03l-80.88,46.7c20.37,35.25,49.72,64.65,84.93,85.07l46.69-80.88c-21.04-12.23-38.58-29.81-50.75-50.89Z"/>
      <path class="cls-18" d="M420.94,297.64v-139.02c-.1,0-.2,0-.3,0-25.31.05-49.02,6.87-69.44,18.74-21.04,12.23-38.58,29.81-50.74,50.89-11.79,20.42-18.53,44.12-18.53,69.39h139.02Z"/>
      <path class="cls-13" d="M420.94,297.64h-139.02c0,25.28,6.75,48.97,18.53,69.39,12.17,21.08,29.71,38.66,50.75,50.89,20.42,11.87,44.14,18.68,69.44,18.73.1,0,.2,0,.29,0v-139.02Z"/>
      <path class="cls-11" d="M420.94,436.65c25.23,0,48.9-6.73,69.3-18.48,21.15-12.19,38.79-29.78,51.03-50.89,11.88-20.48,18.68-44.27,18.68-69.64h-139.02v139.02Z"/>
      <path class="cls-12" d="M490.24,177.1c-20.4-11.75-44.06-18.48-69.3-18.48v139.02h139.02c0-25.38-6.81-49.17-18.68-69.65-12.25-21.11-29.88-38.71-51.04-50.89Z"/>
    </g>
  </g>
  <g id="Calque_1" data-name="Calque 1">
    <text class="cls-7" transform="translate(358.66 230.67)"><tspan class="cls-2"><tspan x="0" y="0">U</tspan></tspan><tspan class="cls-1"><tspan class="cls-27" x="-11.81" y="16.8">T</tspan><tspan x="-4.65" y="16.8">ension</tspan></tspan><tspan class="cls-1"><tspan class="cls-21" x="-3.08" y="33.6">V</tspan><tspan x="4.42" y="33.6">olts</tspan></tspan><tspan class="cls-1"><tspan x="2.54" y="50.4">[V]</tspan></tspan></text>
    <text class="cls-7" transform="translate(467.18 230.67)"><tspan class="cls-2"><tspan x="0" y="0">I</tspan></tspan><tspan class="cls-1"><tspan x="-20.64" y="16.8">In</tspan><tspan class="cls-19" x="-8.29" y="16.8">t</tspan><tspan x="-3.68" y="16.8">ensi</tspan><tspan class="cls-19" x="20.87" y="16.8">t</tspan><tspan x="25.49" y="16.8">é</tspan></tspan><tspan class="cls-1"><tspan x="-20.87" y="33.6">Ampè</tspan><tspan class="cls-26" x="14.11" y="33.6">r</tspan><tspan x="19.7" y="33.6">es</tspan></tspan><tspan class="cls-1"><tspan x="-3.43" y="50.4">[A]</tspan></tspan></text>
    <text class="cls-7" transform="translate(467.18 350)"><tspan class="cls-2"><tspan x="0" y="0">R</tspan></tspan><tspan class="cls-1"><tspan class="cls-24" x="-20.61" y="16.8">R</tspan><tspan x="-12.17" y="16.8">ésistance</tspan></tspan><tspan class="cls-1"><tspan x="-6.09" y="33.6">Ohms</tspan></tspan><tspan class="cls-1"><tspan x="1.52" y="50.4">[Ω]</tspan></tspan></text>
    <text class="cls-7" transform="translate(360.1 350)"><tspan class="cls-2"><tspan x="0" y="0">P</tspan></tspan><tspan class="cls-1"><tspan x="-19.41" y="16.8">Puissance</tspan></tspan><tspan class="cls-1"><tspan class="cls-22" x="-7.08" y="33.6">W</tspan><tspan x="5.2" y="33.6">atts</tspan></tspan><tspan class="cls-1"><tspan x="-1.13" y="50.4">[W]</tspan></tspan></text>
    <text class="cls-5" transform="translate(363.51 105.65)"><tspan x="0" y="0">P</tspan><tspan x="2.92" y="28.8">I</tspan></text>
    <text class="cls-9" transform="translate(469.55 112.78)"><tspan class="cls-6"><tspan x="0" y="0">P</tspan></tspan><tspan class="cls-6" x="-2" y="28.8">R</tspan></text>
    <line class="cls-3" x1="347.32" y1="113.39" x2="393.33" y2="113.39"/>
    <text class="cls-8"><tspan class="cls-10" x="277.5" y="435.01">U </tspan><tspan class="cls-4" x="298.33" y="435.01">·</tspan><tspan class="cls-10" x="302.84" y="435.01" xml:space="preserve"> I   </tspan></text>
    <text class="cls-8"><tspan class="cls-23" x="204.6" y="261.74" xml:space="preserve">√</tspan><tspan class="cls-10" x="222.15" y="261.74">P </tspan><tspan class="cls-4" x="241.06" y="261.74">·</tspan><tspan class="cls-10" x="245.57" y="261.74" xml:space="preserve"> R   </tspan></text>
    <text class="cls-8"><tspan class="cls-10" x="216.34" y="353.24">R </tspan><tspan class="cls-4" x="236.53" y="353.24">·</tspan><tspan class="cls-10" x="241.04" y="353.24" xml:space="preserve"> I²   </tspan></text>
    <text class="cls-8"><tspan class="cls-10" x="267.81" y="173.35">R </tspan><tspan class="cls-4" x="288.01" y="173.35">·</tspan><tspan class="cls-10" x="292.51" y="173.35" xml:space="preserve"> I   </tspan></text>
    <text class="cls-5" transform="translate(590.08 328.16)"><tspan x="0" y="0">U</tspan><tspan x="3.88" y="28.8">I</tspan></text>
    <text class="cls-5" transform="translate(550.49 167.9)"><tspan x="0" y="0">U</tspan><tspan x=".32" y="28.8">R</tspan></text>
    <line class="cls-3" x1="576.3" y1="333.58" x2="622.31" y2="333.58"/>
    <line class="cls-3" x1="535.26" y1="174.5" x2="581.28" y2="174.5"/>
    <line class="cls-3" x1="576.3" y1="249.7" x2="622.31" y2="249.7"/>
    <text class="cls-5" transform="translate(591.04 244.24)"><tspan x="0" y="0">P</tspan><tspan x="-.96" y="28.8">U</tspan></text>
    <text/>
    <g>
      <g>
        <path class="cls-25" d="M552.19,416.24c0,.46.03.83.08,1.1s.13.49.23.65.25.29.43.38.46.18.84.26v.57h-5.14v-.57c.48-.12.81-.26.97-.42s.27-.37.32-.65.08-.71.08-1.29v-10.14c0-.54-.02-.93-.06-1.18s-.1-.44-.19-.57-.21-.25-.36-.33-.4-.17-.76-.28v-.57h5.81c1.83,0,3.19.35,4.08,1.05s1.34,1.76,1.34,3.19c0,.81-.14,1.54-.42,2.19s-.68,1.18-1.2,1.59-1.12.71-1.83.89-1.44.27-2.21.27c-.87,0-1.54-.02-2.02-.05v3.89ZM552.19,411.38h1.36c.88,0,1.61-.12,2.19-.35s1.01-.61,1.32-1.15.46-1.24.46-2.13c0-.67-.09-1.23-.27-1.68s-.43-.81-.74-1.08-.69-.47-1.13-.58-.91-.17-1.43-.17c-.77,0-1.36.02-1.75.05v7.09Z"/>
        <path class="cls-25" d="M552.88,445.08c0,.52.02.91.05,1.15s.09.43.18.57.2.26.36.35.42.19.78.28v.57h-4.95v-.57c.48-.12.81-.26.97-.42s.27-.37.32-.65.08-.71.08-1.29v-10.14c0-.54-.02-.93-.06-1.18s-.1-.44-.19-.57-.21-.25-.36-.33-.4-.17-.76-.28v-.57h4.95v.57c-.34.09-.59.17-.74.26s-.27.19-.36.32-.16.32-.2.58-.06.66-.06,1.2v10.14Z"/>
        <path class="cls-25" d="M561.6,436.97c.27,0,.48-.01.63-.04s.26-.07.35-.12.16-.12.22-.21.15-.27.26-.56h.81l-.16,2.26h-6.87v-.45c.27-.57.62-1.13,1.08-1.69s.98-1.12,1.59-1.71c.73-.7,1.24-1.22,1.55-1.58s.53-.69.68-1.01.22-.63.22-.96c0-.53-.15-.95-.45-1.25s-.73-.46-1.29-.46c-.48,0-.9.13-1.24.39s-.6.64-.78,1.14h-1.11v-1.58c.7-.28,1.34-.48,1.92-.6s1.11-.18,1.56-.18c.62,0,1.13.07,1.53.2s.72.31.97.52.41.47.51.76.15.59.15.89c0,.38-.08.74-.23,1.07s-.41.69-.77,1.08-.99.99-1.89,1.81c-.97.88-1.67,1.64-2.11,2.29h2.89Z"/>
      </g>
      <text class="cls-9" transform="translate(547.21 419.21)"><tspan x="0" y="0">P</tspan><tspan x="-4.61" y="28.8" xml:space="preserve"> I²</tspan></text>
    </g>
    <line class="cls-3" x1="528.72" y1="424.48" x2="574.73" y2="424.48"/>
    <text class="cls-5" transform="translate(455.06 470.3)"><tspan x="0" y="0" xml:space="preserve">  U²</tspan><tspan x="11.13" y="28.8">P</tspan></text>
    <line class="cls-3" x1="450.01" y1="476.68" x2="496.02" y2="476.68"/>
    <text class="cls-5" transform="translate(360.05 470.3)"><tspan x="0" y="0" xml:space="preserve">  U²</tspan><tspan x="10.49" y="28.8">R</tspan></text>
    <line class="cls-3" x1="354.99" y1="476.68" x2="401.01" y2="476.68"/>
    <line class="cls-3" x1="455.6" y1="120.53" x2="501.61" y2="120.53"/>
    <line class="cls-3" x1="209.94" y1="261.5" x2="222.14" y2="236.99"/>
    <line class="cls-3" x1="441.45" y1="138.93" x2="461.53" y2="91.62"/>
    <line class="cls-3" x1="263.71" y1="236.65" x2="221.4" y2="237.34"/>
    <line class="cls-3" x1="500.09" y1="91.75" x2="460.53" y2="91.75"/>
    <image width="497" height="457" transform="translate(680 40) scale(.25)" xlink:href="appareils-de-mesures/amperemetre.png"/>
    <image width="497" height="463" transform="translate(680 460) scale(.25)" xlink:href="appareils-de-mesures/ohmmetrepng.png"/>
    <image width="486" height="480" transform="translate(40 40) scale(.25)" xlink:href="appareils-de-mesures/voltmetre.png"/>
    <image width="483" height="440" transform="translate(40 460) scale(.25)" xlink:href="appareils-de-mesures/wattmetre.png"/>
  </g>
</svg>