<?xml version="1.0" encoding="UTF-8"?>
<svg id="Calque_1" data-name="Calque 1" xmlns="http://www.w3.org/2000/svg" xmlns:xlink="http://www.w3.org/1999/xlink" viewBox="0 0 841.89 595.28">
  <defs>
    <style>
      .cls-1 {
        font-size: 36px;
      }

      .cls-1, .cls-2, .cls-3, .cls-4, .cls-5, .cls-6, .cls-7 {
        stroke: #1d1d1b;
        stroke-miterlimit: 10;
      }

      .cls-1, .cls-3, .cls-5 {
        stroke-width: 2px;
      }

      .cls-8, .cls-9, .cls-3, .cls-10 {
        fill: #1d1d1b;
      }

      .cls-8, .cls-11, .cls-12 {
        font-size: 24px;
      }

      .cls-8, .cls-11, .cls-10 {
        font-family: CambriaMath, 'Cambria Math';
      }

      .cls-13 {
        letter-spacing: 0em;
      }

      .cls-14, .cls-2, .cls-4 {
        fill: #fff;
      }

      .cls-quarter-red {
        fill: #E53935;
        fill-opacity: 0.3;
      }

      .cls-quarter-yellow {
        fill: #FBBC05;
        fill-opacity: 0.3;
      }

      .cls-quarter-blue {
        fill: #4285F4;
        fill-opacity: 0.3;
      }

      .cls-quarter-green {
        fill: #7CB342;
        fill-opacity: 0.3;
      }

      .cls-text-black {
        fill: #000000;
      }

      .cls-15 {
        letter-spacing: -.07em;
      }

      .cls-16 {
        letter-spacing: -.04em;
      }

      .cls-17 {
        font-size: 18px;
      }

      .cls-18 {
        letter-spacing: -.02em;
      }

      .cls-19 {
        font-size: 14px;
      }

      .cls-20 {
        fill: url(#Dégradé_sans_nom_48);
      }

      .cls-4 {
        stroke-width: .83px;
      }

      .cls-21 {
        letter-spacing: -.01em;
      }

      .cls-5 {
        font-size: 12px;
      }

      .cls-6 {
        stroke-width: 1px;
      }

      .cls-6, .cls-7 {
        fill: none;
      }

      .cls-22 {
        letter-spacing: -.08em;
      }
    </style>
    <linearGradient id="Dégradé_sans_nom_48" data-name="Dégradé sans nom 48" x1="709.33" y1="440.17" x2="795.22" y2="440.17" gradientUnits="userSpaceOnUse">
      <stop offset="0" stop-color="#3aaa35"/>
      <stop offset=".94" stop-color="#063"/>
    </linearGradient>
  </defs>
  <!-- Quart de cercle ROUGE (I - Courant) - Haut droite -->
  <path class="cls-quarter-red" d="M 420.94 297.64 L 653.33 297.64 A 232.39 232.39 0 0 0 420.94 65.25 Z" stroke="#1d1d1b" stroke-width="2"/>
  
  <!-- Quart de cercle JAUNE (U - Tension) - Haut gauche -->
  <path class="cls-quarter-yellow" d="M 420.94 297.64 L 420.94 65.25 A 232.39 232.39 0 0 0 188.55 297.64 Z" stroke="#1d1d1b" stroke-width="2"/>
  
  <!-- Quart de cercle BLEU (P - Puissance) - Bas gauche -->
  <path class="cls-quarter-blue" d="M 420.94 297.64 L 188.55 297.64 A 232.39 232.39 0 0 0 420.94 530.03 Z" stroke="#1d1d1b" stroke-width="2"/>
  
  <!-- Quart de cercle VERT (R - Résistance) - Bas droite -->
  <path class="cls-quarter-green" d="M 420.94 297.64 L 420.94 530.03 A 232.39 232.39 0 0 0 653.33 297.64 Z" stroke="#1d1d1b" stroke-width="2"/>
  
  <circle class="cls-2" cx="420.94" cy="297.64" r="232.39"/>
  <circle class="cls-4" cx="420.94" cy="297.64" r="137.32"/>
  <line class="cls-7" x1="188.55" y1="297.64" x2="653.34" y2="297.64"/>
  <line class="cls-7" x1="420.94" y1="65.24" x2="420.94" y2="297.64"/>
  <line class="cls-7" x1="420.94" y1="297.64" x2="420.94" y2="530.03"/>
  <line class="cls-4" x1="287.45" y1="105.21" x2="344.72" y2="183.4"/>
  <line class="cls-4" x1="489.21" y1="416.82" x2="546.96" y2="495.66"/>
  <line class="cls-6" x1="296.7" y1="238.91" x2="211" y2="197.66"/>
  <line class="cls-6" x1="546.96" y1="352.28" x2="633.45" y2="391.83"/>
  <line class="cls-6" x1="550.63" y1="105.91" x2="502.09" y2="186.85"/>
  <line class="cls-6" x1="311.71" y1="502.81" x2="355.71" y2="418.93"/>
  <line class="cls-4" x1="622.25" y1="181.44" x2="540.25" y2="229.59"/>
  <line class="cls-4" x1="221.4" y1="416.82" x2="303.4" y2="368.67"/>
  <text class="cls-text-black" transform="translate(358.66 230.67)"><tspan class="cls-1"><tspan x="0" y="0">U</tspan></tspan><tspan class="cls-19"><tspan class="cls-22" x="-11.81" y="16.8">T</tspan><tspan x="-4.65" y="16.8">ension</tspan></tspan><tspan class="cls-19"><tspan class="cls-15" x="-3.08" y="33.6">V</tspan><tspan x="4.42" y="33.6">olts</tspan></tspan><tspan class="cls-19"><tspan x="2.54" y="50.4">[V]</tspan></tspan></text>
  <text class="cls-10" transform="translate(467.18 230.67)"><tspan class="cls-1"><tspan x="0" y="0">I</tspan></tspan><tspan class="cls-19"><tspan x="-20.64" y="16.8">In</tspan><tspan class="cls-13" x="-8.29" y="16.8">t</tspan><tspan x="-3.68" y="16.8">ensi</tspan><tspan class="cls-13" x="20.87" y="16.8">t</tspan><tspan x="25.49" y="16.8">é</tspan></tspan><tspan class="cls-19"><tspan x="-20.87" y="33.6">Ampè</tspan><tspan class="cls-21" x="14.11" y="33.6">r</tspan><tspan x="19.7" y="33.6">es</tspan></tspan><tspan class="cls-19"><tspan x="-3.43" y="50.4">[A]</tspan></tspan></text>
  <text class="cls-10" transform="translate(467.18 350)"><tspan class="cls-1"><tspan x="0" y="0">R</tspan></tspan><tspan class="cls-19"><tspan class="cls-18" x="-20.61" y="16.8">R</tspan><tspan x="-12.17" y="16.8">ésistance</tspan></tspan><tspan class="cls-19"><tspan x="-6.09" y="33.6">Ohms</tspan></tspan><tspan class="cls-19"><tspan x="1.52" y="50.4">[Ω]</tspan></tspan></text>
  <text class="cls-10" transform="translate(360.1 350)"><tspan class="cls-1"><tspan x="0" y="0">P</tspan></tspan><tspan class="cls-19"><tspan x="-19.41" y="16.8">Puissance</tspan></tspan><tspan class="cls-19"><tspan class="cls-16" x="-7.08" y="33.6">W</tspan><tspan x="5.2" y="33.6">atts</tspan></tspan><tspan class="cls-19"><tspan x="-1.13" y="50.4">[W]</tspan></tspan></text>
  <text class="cls-8" transform="translate(363.51 105.65)"><tspan x="0" y="0">P</tspan><tspan x="2.92" y="28.8">I</tspan></text>
  <text class="cls-11" transform="translate(471.55 105.65)"><tspan class="cls-9"><tspan x="0" y="0">√P·R</tspan></tspan></text>
  <line class="cls-3" x1="347.32" y1="113.39" x2="393.33" y2="113.39"/>
  <text class="cls-10"><tspan class="cls-12" x="277.5" y="435.01">U </tspan><tspan class="cls-5" x="298.33" y="435.01">°</tspan><tspan class="cls-12" x="302.84" y="435.01" xml:space="preserve"> I   </tspan></text>
  <text class="cls-text-black"><tspan class="cls-17" x="204.6" y="261.74" xml:space="preserve">√  </tspan><tspan class="cls-12" x="222.15" y="261.74">P </tspan><tspan class="cls-5" x="241.06" y="261.74">·</tspan><tspan class="cls-12" x="245.57" y="261.74" xml:space="preserve"> R   </tspan></text>
  <text class="cls-10"><tspan class="cls-12" x="216.34" y="353.24">R </tspan><tspan class="cls-5" x="236.53" y="353.24">°</tspan><tspan class="cls-12" x="241.04" y="353.24" xml:space="preserve"> I²   </tspan></text>
  <text class="cls-text-black"><tspan class="cls-12" x="254.81" y="184.35">R </tspan><tspan class="cls-5" x="275.01" y="184.35">·</tspan><tspan class="cls-12" x="279.51" y="184.35" xml:space="preserve"> I   </tspan></text>
  <text class="cls-8" transform="translate(590.08 328.16)"><tspan x="0" y="0">U</tspan><tspan x="3.88" y="28.8">I</tspan></text>
  <text class="cls-8" transform="translate(550.49 167.9)"><tspan x="0" y="0">U</tspan><tspan x=".32" y="28.8">R</tspan></text>
  <line class="cls-3" x1="576.3" y1="333.58" x2="622.31" y2="333.58"/>
  <line class="cls-3" x1="535.26" y1="174.5" x2="581.28" y2="174.5"/>
  <line class="cls-3" x1="576.3" y1="249.7" x2="622.31" y2="249.7"/>
  <text class="cls-8" transform="translate(591.04 244.24)"><tspan x="0" y="0">P</tspan><tspan x="-.96" y="28.8">U</tspan></text>
  <text/>
  <g>
    <g>
      <path class="cls-20" d="M566.19,403.24c0,.46.03.83.08,1.1s.13.49.23.65.25.29.43.38.46.18.84.26v.57h-5.14v-.57c.48-.12.81-.26.97-.42s.27-.37.32-.65.08-.71.08-1.29v-10.14c0-.54-.02-.93-.06-1.18s-.1-.44-.19-.57-.21-.25-.36-.33-.4-.17-.76-.28v-.57h5.81c1.83,0,3.19.35,4.08,1.05s1.34,1.76,1.34,3.19c0,.81-.14,1.54-.42,2.19s-.68,1.18-1.2,1.59-1.12.71-1.83.89-1.44.27-2.21.27c-.87,0-1.54-.02-2.02-.05v3.89ZM566.19,398.38h1.36c.88,0,1.61-.12,2.19-.35s1.01-.61,1.32-1.15.46-1.24.46-2.13c0-.67-.09-1.23-.27-1.68s-.43-.81-.74-1.08-.69-.47-1.13-.58-.91-.17-1.43-.17c-.77,0-1.36.02-1.75.05v7.09Z"/>
      <path class="cls-20" d="M566.88,432.08c0,.52.02.91.05,1.15s.09.43.18.57.2.26.36.35.42.19.78.28v.57h-4.95v-.57c.48-.12.81-.26.97-.42s.27-.37.32-.65.08-.71.08-1.29v-10.14c0-.54-.02-.93-.06-1.18s-.1-.44-.19-.57-.21-.25-.36-.33-.4-.17-.76-.28v-.57h4.95v.57c-.34.09-.59.17-.74.26s-.27.19-.36.32-.16.32-.2.58-.06.66-.06,1.2v10.14Z"/>
      <path class="cls-20" d="M575.6,423.97c.27,0,.48-.01.63-.04s.26-.07.35-.12.16-.12.22-.21.15-.27.26-.56h.81l-.16,2.26h-6.87v-.45c.27-.57.62-1.13,1.08-1.69s.98-1.12,1.59-1.71c.73-.7,1.24-1.22,1.55-1.58s.53-.69.68-1.01.22-.63.22-.96c0-.53-.15-.95-.45-1.25s-.73-.46-1.29-.46c-.48,0-.9.13-1.24.39s-.6.64-.78,1.14h-1.11v-1.58c.7-.28,1.34-.48,1.92-.6s1.11-.18,1.56-.18c.62,0,1.13.07,1.53.2s.72.31.97.52.41.47.51.76.15.59.15.89c0,.38-.08.74-.23,1.07s-.41.69-.77,1.08-.99.99-1.89,1.81c-.97.88-1.67,1.64-2.11,2.29h2.89Z"/>
    </g>
    <text class="cls-11" transform="translate(561.21 406.21)"><tspan x="0" y="0">P</tspan><tspan x="-4.61" y="28.8" xml:space="preserve"> I²</tspan></text>
  </g>
  <line class="cls-3" x1="542.72" y1="411.48" x2="588.73" y2="411.48"/>
  <text class="cls-8" transform="translate(455.06 470.3)"><tspan x="0" y="0" xml:space="preserve">  U²</tspan><tspan x="11.13" y="28.8">P</tspan></text>
  <line class="cls-3" x1="450.01" y1="476.68" x2="496.02" y2="476.68"/>
  <text class="cls-8" transform="translate(360.05 470.3)"><tspan x="0" y="0" xml:space="preserve">  U²</tspan><tspan x="10.49" y="28.8">R</tspan></text>
  <line class="cls-3" x1="354.99" y1="476.68" x2="401.01" y2="476.68"/>
  <line class="cls-3" x1="457.6" y1="113.39" x2="503.61" y2="113.39"/>
  <line class="cls-3" x1="209.94" y1="261.5" x2="222.14" y2="236.99"/>
  <line class="cls-3" x1="442.45" y1="131.93" x2="462.53" y2="84.62"/>
  <line class="cls-3" x1="263.71" y1="236.65" x2="221.4" y2="237.34"/>
  <line class="cls-3" x1="502.09" y1="84.62" x2="462.53" y2="84.62"/>
  <image width="497" height="457" transform="translate(606.66 77.52) scale(.19)" xlink:href="amperemetre.png"/>
  <image width="497" height="463" transform="translate(612.62 457.85) scale(.19)" xlink:href="ohmmetrepng.png"/>
  <image width="486" height="480" transform="translate(140.08 75.66) scale(.19)" xlink:href="voltmetre.png"/>
  <image width="483" height="440" transform="translate(133.04 462.23) scale(.18)" xlink:href="wattmetre.png"/>
</svg>